<svg xmlns="http://www.w3.org/2000/svg" viewBox="0 0 24 24" role="img" aria-hidden="true">
    <title>LinkedIn</title>
    <path fill="#111111" d="M22.225 0H1.771C.792 0 0 .774 0 1.729v20.542C0 23.226.792 24 1.771 24h20.454C23.2 24 24 23.226 24 22.271V1.729C24 .774 23.2 0 22.225 0ZM7.06 20.452H3.887V9h3.173zm-1.586-13.1h-.018c-1.08 0-1.778-.744-1.778-1.673 0-.949.719-1.673 1.817-1.673 1.099 0 1.778.724 1.796 1.673 0 .929-.697 1.673-1.795 1.673ZM20.452 20.452h-3.173v-6.17c0-1.55-.555-2.607-1.943-2.607-1.06 0-1.69.716-1.969 1.407-.101.246-.126.59-.126.935v6.435h-3.173s.041-10.437 0-11.452h3.173v1.622c.421-.65 1.176-1.577 2.862-1.577 2.09 0 3.649 1.367 3.649 4.303Z"/>
</svg>
