<?xml version="1.0" encoding="utf-8"?>
<!-- Generator: Adobe Illustrator 19.2.1, SVG Export Plug-In . SVG Version: 6.00 Build 0)  -->
<svg version="1.1" id="layer" xmlns="http://www.w3.org/2000/svg" xmlns:xlink="http://www.w3.org/1999/xlink" x="0px" y="0px"
	 viewBox="0 0 652 652" style="enable-background:new 0 0 652 652;" xml:space="preserve">
<style type="text/css">
	.st0{fill:#0E0E14;}
</style>
<path class="st0" d="M72.9,347.5c0,0-0.7-5.2-1-10.1c-4.3,7.6-12.5,12.2-21.2,11.9c-14.8,0-23.9-9.9-23.9-28.6
	c0-17.3,9.2-27.3,22.9-33.8c13.7-6.5,22-13.9,22-26.7c0-12.8-3.5-21.8-15.8-21.8s-16.3,8.5-16.3,21.8v4.5h-8.7v-4.5
	c0-17.9,7.3-29.8,25-29.8s24.5,11.6,24.5,31.6v65.9c0,9.5,1,19.7,1,19.7H72.9z M71.7,278.5c-4,6.5-9.9,11.5-17,14.3
	c-14.3,7-18.6,14.8-18.6,27.6c0,14.3,6.1,21.3,16,21.3s19.6-9,19.6-22.4L71.7,278.5z M122.6,349.3c-15.6,0-25.7-10.3-25.7-30.7V261
	c0-20.4,10.2-30.7,25.7-30.7s25.7,10.1,25.7,30.7v2h-8.7v-2c0-14.6-6.1-22.6-17-22.6s-17,8.1-17,22.6v57.6c0,14.6,5.9,22.6,17,22.6
	s17-8.1,17-22.6v-2h8.7v2C148.3,339.2,137.9,349.3,122.6,349.3z M188.7,349.3c-15.6,0-25.7-10.3-25.7-30.7V261
	c0-20.4,10.2-30.7,25.7-30.7s25.7,10.1,25.7,30.7v2h-8.7v-2c0-14.6-6.1-22.6-17-22.6s-17,8.1-17,22.6v57.6c0,14.6,5.9,22.6,17,22.6
	s17-8.1,17-22.6v-2h8.7v2C214.3,339.2,204,349.3,188.7,349.3z M339.6,263v-5.8c0-10.7-5.2-18.8-15.6-18.8
	c-10.4,0-16.5,7.1-16.5,18.3c0.1,7.9,3.8,15.4,10.1,20.2l19.1,16.6c8.6,6.5,13.6,16.7,13.5,27.4c0,16.8-9.9,28.3-26.6,28.3
	c-19.1,0-26.2-13.5-26.2-29.2v-4.8h8.7v4.8c0,13,6.1,21.3,17.5,21.3c11.4,0,17.7-8,17.7-20.4c-0.1-8.1-3.8-15.8-10.1-20.9L312,283.5
	c-8.6-6.3-13.6-16.3-13.5-26.9c0-16,9.2-26.3,25.4-26.3s24.3,10.7,24.3,26.9v5.8H339.6z M390.3,349.3c-15.8,0-26.9-10.1-26.9-30.7
	V261c0-20.6,11.1-30.7,26.9-30.7s26.9,10.1,26.9,30.7v57.6C417.2,339.2,406.1,349.3,390.3,349.3z M408.7,261
	c0-14.6-6.8-22.6-18.2-22.6c-11.4,0-18.2,8.1-18.2,22.6v57.6c0,14.6,6.8,22.6,18.2,22.6c11.4,0,18.2-8,18.2-22.6V261z M479,347.5
	V261c0-15.2-4.8-22.6-15.8-22.6c-12,0-18.4,9.2-18.4,25.1v84.1H436V232.1h8v9.8c3.5-7.4,11.2-12,19.4-11.6
	c16.5,0,24.3,9.5,24.3,30.7v86.5H479z M616.3,263v-5.8c0-10.7-5.2-18.8-15.6-18.8s-16.5,7.2-16.5,18.4c0.1,7.9,3.8,15.4,10.1,20.2
	l19.1,16.6c8.5,6.5,13.5,16.7,13.5,27.4c0,16.8-9.9,28.3-26.6,28.3c-19.1,0-26.2-13.5-26.2-29.2v-4.8h8.7v4.8
	c0,13,6.1,21.3,17.5,21.3s17.7-8.1,17.7-20.4c-0.1-8.1-3.8-15.8-10.1-20.9l-19.1-16.6c-8.6-6.3-13.6-16.3-13.5-26.9
	c0-16.1,9.2-26.4,25.5-26.4c16.3,0,24.3,10.7,24.3,26.9v6H616.3z M550.9,232.1v86.5c0,14.6-6.8,22.6-18.1,22.6s-18.2-8.1-18.2-22.6
	v-86.5h-8.7v86.5c0,20.6,11.1,30.7,26.9,30.7c15.8,0,26.9-10.1,26.9-30.7v-86.5H550.9z M274.4,232.1v86.5c0,14.6-6.8,22.6-18.2,22.6
	c-11.4,0-18.2-8.1-18.2-22.6v-86.5h-8.7v86.5c0,19.1,9.5,29,23.2,30.5v56c-3.2,1.3-5.3,4.4-5.3,7.8c0,5,4,9,9,9c5,0,9-4,9-9
	c0-3.4-2.1-6.5-5.3-7.8v-56c13.8-1.5,23.2-11.5,23.2-30.5v-86.5H274.4z"/>
</svg>
